# xmcd
#
# Track frame offsets:
#	150
#	16441
#	41786
#	58991
#	73571
#	90980
#	110123
#	125411
#	141951
#	153112
#	169082
#	185259
#	203473
#	221233
#	238643
#	255131
#	269219
#	281216
#	300554
#	314108
#
# Disc length: 4388 seconds
#
# Revision: 1
# Processed by: cddbd v1.5.2PL0 Copyright (c) Steve Scherf et al.
# Submitted via: audiograbber 1.83.01
#
DISCID=2e112214
DTITLE=Various Artist - 100 Hits - Country - CD4
DYEAR=2007
DGENRE=Country
TTITLE0=Randy Travis - Forever And Ever, Amen
TTITLE1=Sara Evans - Born To Fly
TTITLE2=Brad Paisley - We Danced
TTITLE3=Pam Tillis - Don't Tell Me What To Do
TTITLE4=Mandy Barnett - Rainy Days
TTITLE5=K.T. Oslin - 80's Ladies
TTITLE6=K.D. Lang - Trail Of Broken Hearts
TTITLE7=Rodney Crowell - I Ain't Living Long Like This
TTITLE8=The Dillards - Somebody Touched Me
TTITLE9=Tracy Lawrence - How A Cowgirl Says Goodbye
TTITLE10=Beth Nielsen - Happy Girl
TTITLE11=Leslie Satcher - Love Letters From Old Mexico
TTITLE12=Kenny Chesney - I Lost It
TTITLE13=Blake Shelton - Austin
TTITLE14=Tracy Lawrence - Sticks And Stones
TTITLE15=Clint Black - A Better Man
TTITLE16=Gene Parsons - Drunkard's Dream
TTITLE17=John Prine - Sam Stone
TTITLE18=Gram Rasons - That's All It Took
TTITLE19=Dwight Yoakam With Maria McKee - Bury Me
EXTD=
EXTT0=
EXTT1=
EXTT2=
EXTT3=
EXTT4=
EXTT5=
EXTT6=
EXTT7=
EXTT8=
EXTT9=
EXTT10=
EXTT11=
EXTT12=
EXTT13=
EXTT14=
EXTT15=
EXTT16=
EXTT17=
EXTT18=
EXTT19=
PLAYORDER=
